<svg width="1292" height="678" viewBox="0 0 1292 678" fill="none" xmlns="http://www.w3.org/2000/svg">
<g id="all">
<g id="undraw_programming_2svr 1" clip-path="url(#clip0)">
<path id="background-sky" d="M1125.41 532.357C1124.07 535.349 1122.73 538.301 1121.39 541.213C1119.3 545.736 1117.24 550.172 1115.21 554.52C1114.3 556.447 1113.4 558.337 1112.51 560.228C1102.54 581.254 1093.22 599.85 1085.31 615.144C1078.13 629.001 1067.47 640.612 1054.45 648.76C1041.42 656.908 1026.51 661.293 1011.28 661.456L835.351 663.43H833.495L818.413 663.598L805.513 663.741L765.953 664.184H764.352L744.212 664.411H743.597L619.465 665.8L508.663 666.996L495.774 667.14L415.726 668.038H415.633L363.718 668.612H363.161L199.005 670.443L149.897 670.993C139.418 671.115 128.982 669.574 118.957 666.422C101.511 660.986 85.8328 650.746 73.6082 636.804C52.5173 612.834 37.1458 584.868 26.8208 554.52C25.3281 550.14 23.936 545.704 22.6444 541.213C-13.0988 416.578 30.4752 255.78 108.899 148.174C112.186 143.674 115.527 139.286 118.922 135.01L119.003 134.914C143.122 104.375 170.165 78.8618 198.97 60.72C250.015 28.5173 306.571 19.4464 362.198 46.4795C409.264 69.3601 453.209 80.1183 495.809 83.0382C500.113 83.3254 504.417 83.5408 508.697 83.6724C606.414 86.8437 697.993 50.5243 805.536 27.0812C809.817 26.1478 814.109 25.2264 818.436 24.3528C895.155 8.60443 980.261 0.299447 1081.47 17.7591C1091.98 19.531 1102.36 22.0907 1112.51 25.4179C1116.98 26.9017 1121.28 28.4973 1125.41 30.2046C1173.72 50.4764 1200.07 87.9326 1211.26 134.867C1212.32 139.223 1213.24 143.654 1214.01 148.162C1233.86 261.057 1175.73 421.197 1125.41 532.357Z" fill="url(#paint0_radial)"/>
<g id="Group" opacity="0.1">
<path id="Vector_2" opacity="0.1" d="M1527.34 27.7209H-159.89C-154.872 20.9803 -149.771 14.407 -144.588 8.00106V7.85767H1523.14C1524.76 14.3473 1526.16 20.9684 1527.34 27.7209Z" fill="#951DA0"/>
<path id="Vector_3" opacity="0.1" d="M450.471 -68.9602V805.132L430.794 805.348V-69.9104C437.364 -69.4801 443.935 -69.2291 450.471 -68.9602Z" fill="#951DA0"/>
<path id="Vector_4" opacity="0.1" d="M1385.85 616.521C1382.66 623.297 1379.51 629.942 1376.41 636.456H-285.196C-287.475 629.895 -289.6 623.25 -291.572 616.521H1385.85Z" fill="#951DA0"/>
</g>
<path id="Vector_5" d="M286.113 325.23H262.539V395.774H286.113V325.23Z" fill="#3F3D56"/>
<path id="Vector_6" d="M920.537 321.56H896.963V396.19H920.537V321.56Z" fill="#3F3D56"/>
<path id="Vector_7" d="M1070.88 652.895V668.8L882.385 670.512L880.375 670.549L808.735 671.198L807.022 671.222L785.248 671.406H784.602L651.869 672.617L433.984 674.611H433.797L378.399 675.125L377.803 675.137L131.642 677.364V659.012L189.522 624.755L305.655 623.801L308.136 623.789L308.955 623.777L311.436 623.74L367.195 623.287L369.689 623.275L370.483 623.263L372.964 623.251L390.843 623.104L391.315 623.092L435.423 622.724H435.783L779.962 619.862L788.387 619.8H789.23L795.657 619.739L842.371 619.36L844.852 619.323L847.148 619.299H848.339L862.868 619.189L865.746 619.152L869.605 619.128L881.702 619.017L900.896 618.858L903.378 618.834L907.696 618.809H908.502L1001.2 618.026L1070.88 652.895Z" fill="#65617D"/>
<path id="Vector_8" opacity="0.2" d="M1070.88 652.895V668.8L882.385 670.512L880.375 670.549L808.735 671.198L807.022 671.222L785.248 671.406H784.602L651.869 672.617L433.984 674.611H433.797L378.399 675.125L377.803 675.137L131.642 677.364V659.012L189.522 624.755L305.655 623.801L308.136 623.789L308.955 623.777L311.436 623.74L367.195 623.287L369.689 623.275L370.483 623.263L372.964 623.251L390.843 623.104L391.315 623.092L435.423 622.724H435.783L779.962 619.862L788.387 619.8H789.23L795.657 619.739L842.371 619.36L844.852 619.323L847.148 619.299H848.339L862.868 619.189L865.746 619.152L869.605 619.128L881.702 619.017L900.896 618.858L903.378 618.834L907.696 618.809H908.502L1001.2 618.026L1070.88 652.895Z" fill="black"/>
<path id="Vector_9" d="M367.381 591.734V621.697C367.382 623.116 366.974 624.506 366.205 625.706C365.437 626.906 364.338 627.866 363.038 628.475C362.07 628.937 361.012 629.188 359.937 629.209L316.635 630.114C315.479 630.141 314.332 629.903 313.285 629.417C311.962 628.819 310.841 627.859 310.056 626.65C309.271 625.442 308.854 624.037 308.856 622.602V591.734H367.381Z" fill="#3F3D56"/>
<path id="Vector_10" opacity="0.1" d="M367.381 591.734V621.697C367.382 623.116 366.974 624.506 366.205 625.706C365.437 626.906 364.338 627.866 363.038 628.475C362.07 628.937 361.012 629.188 359.937 629.209L316.635 630.114C315.479 630.141 314.332 629.903 313.285 629.417C311.962 628.819 310.841 627.859 310.056 626.65C309.271 625.442 308.854 624.037 308.856 622.602V591.734H367.381Z" fill="black"/>
<path id="Vector_11" d="M369.863 591.734V621.697C369.863 623.116 369.455 624.506 368.687 625.706C367.918 626.906 366.82 627.866 365.52 628.475C364.552 628.937 363.494 629.188 362.418 629.209L319.117 630.114C317.96 630.141 316.813 629.903 315.767 629.417C314.444 628.819 313.323 627.859 312.538 626.65C311.752 625.442 311.336 624.037 311.337 622.602V591.734H369.863Z" fill="#3F3D56"/>
<path id="Vector_12" d="M903.378 591.734H844.852V630.273H903.378V591.734Z" fill="#3F3D56"/>
<path id="Vector_13" opacity="0.1" d="M903.378 591.734H844.852V630.273H903.378V591.734Z" fill="black"/>
<path id="Vector_14" d="M900.896 591.734H842.371V630.273H900.896V591.734Z" fill="#3F3D56"/>
<path id="Vector_15" opacity="0.1" d="M286.113 325.218V332.228L262.539 331.629V325.218H286.113Z" fill="black"/>
<path id="Vector_16" opacity="0.1" d="M920.537 321.547V326.184L896.963 326.661V321.547H920.537Z" fill="black"/>
<path id="Vector_17" opacity="0.1" d="M286.113 374.878H262.539V395.774H286.113V374.878Z" fill="black"/>
<path id="Vector_18" opacity="0.1" d="M369.863 591.722V597.803L311.337 599.344V591.722H369.863Z" fill="black"/>
<path id="Vector_19" opacity="0.1" d="M920.537 374.878H896.963V396.19H920.537V374.878Z" fill="black"/>
<path id="Vector_20" opacity="0.1" d="M1070.88 652.895V668.8L882.385 670.512L880.375 670.549L808.735 671.198L807.022 671.222L785.248 671.406H784.602L651.869 672.617L433.984 674.611H433.797L378.399 675.125L377.803 675.137L131.642 677.364V659.012L382.903 657.385H383.498L434.356 657.042H434.592L785.818 654.754H786.178L786.389 654.742H786.972L792.915 654.705H794.727L887.149 654.094L892.608 654.069L893.824 654.057L1070.88 652.895Z" fill="black"/>
<path id="Vector_21" opacity="0.1" d="M369.863 617.794V621.697C369.863 623.116 369.455 624.506 368.687 625.706C367.918 626.906 366.82 627.866 365.52 628.475L315.767 629.417C314.444 628.819 313.323 627.859 312.538 626.65C311.752 625.442 311.336 624.037 311.337 622.602V618.932L369.863 617.794Z" fill="black"/>
<path id="Vector_22" d="M370.483 630.775L305.655 631.998V621.391L370.483 620.167V630.775Z" fill="#3F3D56"/>
<path id="Vector_23" opacity="0.1" d="M370.483 630.775L305.655 631.998V621.391L370.483 620.167V630.775Z" fill="black"/>
<path id="Vector_24" d="M372.964 630.775L308.136 631.998V621.391L372.964 620.167V630.775Z" fill="#3F3D56"/>
<path id="Vector_25" opacity="0.1" d="M848.785 591.734C848.785 591.734 852.719 605.804 848.785 618.039C844.852 630.273 848.785 591.734 848.785 591.734Z" fill="black"/>
<path id="Vector_26" opacity="0.1" d="M865.535 606.086C865.535 606.086 867.186 623.948 863.463 627.117C859.741 630.285 865.535 606.086 865.535 606.086Z" fill="black"/>
<g id="lower-right">
<path id="Vector_27" d="M978.132 382.157V594.181C978.116 595.469 977.585 596.698 976.656 597.602C975.728 598.507 974.474 599.014 973.169 599.014L735.333 592.774C734.06 592.727 732.854 592.199 731.965 591.3C731.075 590.4 730.571 589.198 730.556 587.942V382.157C730.572 380.88 731.094 379.661 732.009 378.758C732.925 377.855 734.162 377.341 735.457 377.325H973.181C974.485 377.328 975.735 377.836 976.661 378.741C977.587 379.645 978.116 380.872 978.132 382.157Z" fill="#65617D"/>
<path id="lower-right-screen" d="M962.312 390.465H742.082V571.841L962.312 576.735V390.465Z" fill="#D4DFEC"/>
</g>
<g id="lower-mid">
<path id="Vector_29" d="M724.402 382.157V587.942C724.387 589.198 723.883 590.4 722.993 591.3C722.104 592.199 720.898 592.727 719.625 592.774L481.839 599.014C480.533 599.014 479.28 598.507 478.351 597.602C477.422 596.698 476.892 595.469 476.876 594.181V382.157C476.892 380.88 477.413 379.661 478.329 378.758C479.245 377.855 480.482 377.341 481.777 377.325H719.501C720.796 377.341 722.033 377.855 722.949 378.758C723.864 379.661 724.386 380.88 724.402 382.157Z" fill="#65617D"/>
<path id="lower-mid-screen" d="M492.695 390.465H712.925V571.841L492.695 576.735V390.465Z" fill="#D4DFEC"/>
</g>
<g id="lower-left">
<path id="Vector_31" d="M473.154 382.157V587.942C473.138 589.198 472.634 590.4 471.745 591.3C470.856 592.199 469.65 592.727 468.377 592.774L230.59 599.014H230.528C229.233 598.998 227.996 598.484 227.081 597.581C226.165 596.678 225.643 595.458 225.627 594.181V382.157C225.643 380.88 226.165 379.661 227.081 378.758C227.996 377.855 229.233 377.341 230.528 377.325H468.253C469.547 377.341 470.785 377.855 471.7 378.758C472.616 379.661 473.137 380.88 473.154 382.157Z" fill="#65617D"/>
<path id="lower-left-screen" d="M241.447 390.465H461.677V571.841L241.447 576.735V390.465Z" fill="#D4DFEC"/>
<path id="Vector_33" d="M246.893 419.473L372.964 418.249" stroke="#951DA0" stroke-width="2" stroke-miterlimit="10"/>
<path id="Vector_34" d="M246.893 434.729L372.964 433.518" stroke="#951DA0" stroke-width="2" stroke-miterlimit="10"/>
<path id="Vector_35" d="M246.893 449.998L372.964 448.774" stroke="#951DA0" stroke-width="2" stroke-miterlimit="10"/>
</g>
<g id="upper-right">
<path id="Vector_36" d="M1026.91 317.632C1026.94 318.139 1026.87 318.648 1026.7 319.127C1026.53 319.606 1026.26 320.047 1025.91 320.421C1025.56 320.796 1025.14 321.098 1024.67 321.308C1024.21 321.519 1023.7 321.633 1023.18 321.645L790.918 326.38C789.953 326.4 789.016 326.059 788.296 325.426C787.575 324.792 787.125 323.914 787.034 322.967L767.071 118.308C767.021 117.8 767.077 117.288 767.235 116.802C767.392 116.316 767.648 115.867 767.987 115.481C768.325 115.096 768.74 114.782 769.205 114.559C769.671 114.336 770.177 114.209 770.694 114.185L1001.2 102.88L1003.68 102.758C1004.66 102.706 1005.63 103.035 1006.38 103.674C1007.12 104.313 1007.59 105.213 1007.67 106.183L1026.91 317.632Z" fill="#65617D"/>
<path id="upper-right-screen" d="M780.334 126.211L990.849 116.008L1008.63 301.972L799.776 306.866L780.334 126.211Z" fill="#951DA0"/>
</g>
<g id="upper-mid">
<path id="Vector_38" d="M724.514 118.455H483.799C480.147 118.455 477.186 121.374 477.186 124.976V323.994C477.186 327.596 480.147 330.515 483.799 330.515H724.514C728.166 330.515 731.127 327.596 731.127 323.994V124.976C731.127 121.374 728.166 118.455 724.514 118.455Z" fill="#65617D"/>
<path id="upper-mid-screen" d="M719.948 132.732H489.171V309.313H719.948V132.732Z" fill="#951DA0"/>
</g>
<g id="upper-left">
<path id="Vector_40" d="M441.279 127.728L412.953 328.374C412.774 329.656 412.121 330.827 411.121 331.665C410.121 332.502 408.843 332.947 407.531 332.913L180.725 327.114L176.42 327.004C175.67 326.987 174.933 326.813 174.256 326.496C173.578 326.178 172.977 325.724 172.49 325.162C172.003 324.599 171.641 323.942 171.429 323.233C171.217 322.524 171.159 321.779 171.258 321.046L203.058 111.004C203.263 109.703 203.956 108.525 204.999 107.702C206.041 106.88 207.359 106.474 208.691 106.563L436.316 121.758C437.051 121.8 437.768 121.991 438.424 122.321C439.079 122.65 439.658 123.109 440.125 123.67C440.591 124.231 440.934 124.882 441.133 125.58C441.332 126.279 441.381 127.01 441.279 127.728Z" fill="#65617D"/>
<path id="upper-left-screen" d="M218.282 121.317L194.299 306.462L402.742 312.983L428.375 134.359L218.282 121.317Z" fill="#951DA0"/>
</g>
<g id="man">
<path id="neck" d="M668.259 461.437C668.259 461.437 544.806 476.118 556.593 461.437C560.861 456.127 562.04 440.393 561.804 422.47C561.729 417.026 561.531 411.386 561.246 405.77C559.881 378.854 556.593 352.55 556.593 352.55C556.593 352.55 664.537 302.388 652.129 342.15C647.166 358.214 648.792 380.775 652.563 401.953C653.668 408.131 654.946 414.187 656.286 419.937C659.556 433.963 663.552 447.814 668.259 461.437Z" fill="#FBBEBE"/>
<path id="shirt-main" d="M433.934 675.994V674.966L651.831 672.629L784.59 671.406H784.962L784.826 673.216L785.012 671.406H785.247V671.198L786.947 654.742L787.592 648.515L787.791 646.57L787.965 644.942L795.632 619.727L803.3 594.548L809.752 573.346L819.603 540.949C819.603 540.949 814.02 528.103 810.918 524.432C807.816 520.762 804.715 495.681 804.715 495.681C804.715 495.681 778.237 470.809 766.661 467.946C761.81 466.722 752.232 465.095 742.058 463.052C738.248 462.293 734.34 461.486 730.581 460.605C728.459 460.128 726.375 459.626 724.377 459.125C720.489 458.167 716.658 456.999 712.9 455.625C710.93 454.92 709.055 453.979 707.317 452.824C698.198 446.229 675.343 445.483 674.462 445.483C674.46 445.455 674.46 445.426 674.462 445.397V445.287C674.494 444.774 674.494 444.259 674.462 443.746C674.462 443.256 674.462 442.681 674.351 442.033C674.351 441.837 674.351 441.629 674.264 441.421C674.202 440.981 674.127 440.516 674.016 440.026C673.978 439.808 673.928 439.591 673.867 439.378C673.507 437.904 672.987 436.472 672.316 435.108C672.229 434.912 672.117 434.704 672.018 434.509C671.41 433.379 670.704 432.302 669.909 431.291C669.748 431.083 669.574 430.863 669.388 430.655C668.371 429.473 667.241 428.391 666.013 427.425C665.678 427.168 665.331 426.899 664.971 426.654C664.77 426.494 664.559 426.346 664.338 426.214L663.234 425.504L662.204 424.917C661.298 424.427 660.343 423.95 659.301 423.498C658.978 423.351 658.631 423.216 658.283 423.082C657.936 422.947 657.39 422.739 656.931 422.568H656.856L655.926 422.201C655.219 421.968 654.499 421.76 653.742 421.552L652.588 421.259L651.348 420.977L650.107 420.72C648.866 420.476 647.539 420.256 646.149 420.084L644.734 419.913L643.283 419.766L641.781 419.644L639.647 419.521L637.166 419.436C626.222 419.435 615.308 420.579 604.609 422.849C597.176 421.218 589.563 420.528 581.953 420.794H580.874L579.633 420.867H578.839L577.239 421.014C576.705 421.014 576.159 421.124 575.626 421.198C575.092 421.271 574.534 421.332 574 421.418L573.181 421.552C572.375 421.687 571.556 421.834 570.7 422.005C570.427 422.054 570.154 422.115 569.881 422.189C568.802 422.421 567.722 422.702 566.655 423.02C566.122 423.167 565.588 423.339 565.055 423.522C564.782 423.596 564.521 423.693 564.261 423.791L563.466 424.073L562.685 424.379L561.754 424.746C561.283 424.941 560.824 425.149 560.365 425.37C560.104 425.48 559.844 425.602 559.595 425.737C559.347 425.871 559.087 425.981 558.851 426.116C556.046 427.545 553.453 429.348 551.146 431.475L550.513 432.074L549.893 432.698C549.682 432.906 549.483 433.126 549.285 433.346C548.476 434.218 547.722 435.137 547.027 436.099C546.828 436.356 546.642 436.613 546.456 436.882C545.669 438.027 544.956 439.22 544.322 440.455C544.161 440.748 544.012 441.054 543.863 441.348C542.85 443.415 542.02 445.564 541.381 447.771C541.15 448.587 540.939 449.402 540.749 450.218C540.749 450.218 514.482 461.645 492.695 469.915C486.901 472.118 481.442 474.112 476.876 475.617C475.548 476.057 474.307 476.461 473.154 476.84C470.65 477.732 468.046 478.324 465.399 478.602C464.151 478.622 462.907 478.737 461.677 478.944C451.664 480.547 434.505 487.509 432.631 494.495C432.479 495.052 432.437 495.634 432.507 496.207C432.507 496.207 432.507 496.293 432.507 496.342C433.748 504.906 425.063 503.683 425.063 503.683C425.063 503.683 421.961 526.316 417.618 532.434C414.479 536.838 412.333 546.662 412.06 554.077C411.904 556.387 412.088 558.707 412.606 560.965C412.606 561.026 412.606 561.087 412.606 561.136C413.102 562.775 411.911 567.253 409.889 572.991C407.692 579.292 404.491 587.122 401.414 594.512C396.774 605.67 392.407 615.8 392.134 618.026C392.022 619.017 391.699 620.791 391.253 623.079C389.441 632.402 385.421 650.154 383.436 657.336C381.96 662.695 379.813 670.035 378.337 675.076C378.337 675.223 378.25 675.37 378.213 675.504L433.835 674.966V675.994H434.008H433.934Z" fill="#951DA0"/>
<path id="shirt-collar" d="M674.537 443.795C638.556 450.328 570.812 448.921 541.53 447.93C552.263 410.003 604.597 422.898 604.597 422.898C669.375 410.15 674.338 436.601 674.537 443.795Z" fill="#951DA0"/>
<path id="hand" d="M865.535 611.004C865.535 611.004 907.919 604.581 908.75 622.932C909.581 641.284 887.136 654.106 887.136 654.106L865.535 611.004Z" fill="#FBBEBE"/>
<path id="head" d="M587.09 234.817C585.319 235.278 583.464 235.325 581.671 234.953C579.879 234.581 578.2 233.802 576.767 232.676L579.348 236.212C577.827 236.385 576.286 236.228 574.833 235.753C573.38 235.277 572.05 234.494 570.936 233.459C570.702 236.624 570.835 239.805 571.333 242.941C567.063 243.144 562.858 241.843 559.471 239.27C559.405 240.374 559.684 241.471 560.269 242.414C560.855 243.357 561.72 244.1 562.747 244.543C558.457 244.038 554.128 245.089 550.566 247.5C547.005 249.911 544.454 253.518 543.391 257.647L549.868 258.234C544.778 259.306 540.21 262.054 536.915 266.027C534.93 268.474 533.416 271.606 534.284 274.591C535.153 277.577 539.347 279.485 541.63 277.356C538.382 281.178 536.022 285.655 534.714 290.471C533.407 295.288 533.184 300.328 534.061 305.239C534.65 307.331 534.843 309.513 534.632 311.674C534.222 313.693 532.932 315.442 532.287 317.412C531.046 320.985 532.225 324.863 533.329 328.423L539.148 347.289C541.257 354.104 543.354 360.93 546.109 367.525C548.059 371.694 549.717 375.99 551.072 380.383C552.635 386.305 552.697 392.789 556.034 397.964C558.322 401.221 561.38 403.879 564.943 405.709C577.214 412.633 592.041 414.102 606.086 412.438C620.131 410.774 633.605 406.186 646.968 401.635C649.936 400.753 652.786 399.52 655.454 397.964C664.698 391.994 666.757 379.784 668.482 369.03C670.405 357.04 672.974 345.074 677.527 333.794C680.232 327.077 683.731 320.263 683.135 313.069C682.378 303.514 674.711 295.769 672.812 286.373C672.177 283.232 672.206 279.996 672.899 276.867C673.488 275.003 673.818 273.068 673.879 271.117C673.668 267.177 670.393 264.143 667.316 261.611C660.641 256.113 653.751 250.918 646.645 246.024C646.285 243.577 649.66 242.525 651.186 240.592C653.345 237.863 651.112 233.532 647.836 232.26C644.561 230.988 640.888 231.82 637.476 232.664C637.699 230.942 637.351 229.195 636.486 227.683C635.62 226.171 634.283 224.975 632.673 224.273C631.063 223.57 629.266 223.399 627.55 223.784C625.833 224.17 624.289 225.091 623.146 226.412C622.24 224.363 620.792 222.592 618.954 221.283C617.117 219.975 614.956 219.177 612.699 218.973C604.473 218.337 604.311 224.54 599.051 227.953C593.79 231.367 589.447 226.865 585.403 223.586C584.659 225.439 584.424 227.453 584.72 229.424C585.017 231.396 585.834 233.256 587.09 234.817Z" fill="#3F3D56"/>
<path id="shirt-sleeve" d="M896.963 647.707C896.963 647.707 895.859 650.301 893.824 654.057C890.746 659.836 886.999 665.243 882.657 670.17L882.322 670.525H880.312L808.672 671.173H806.96L806.749 670.928L792.853 654.669L787.617 648.539L787.406 648.282L786.96 647.769L786.711 647.475L786.389 647.096L776.203 635.179L779.925 619.886L786.265 594.12L786.426 593.496L787.667 588.602L788.548 584.932L791.501 572.967L801.625 531.798L819.616 540.973L838.587 574.007L848.773 591.747H854.356C855.411 591.747 857.83 593.753 860.262 596.065C861.131 596.885 861.999 597.754 862.744 598.512C864.952 600.764 866.702 602.697 866.702 602.697C866.702 602.697 875.747 602.892 878.178 609.915C878.304 610.255 878.408 610.602 878.489 610.955C879.296 613.715 880.346 616.401 881.628 618.981C883.228 622.419 885.238 626.321 887.273 630.224C891.057 637.381 894.903 644.196 896.318 646.667L896.492 646.973L896.963 647.707Z" fill="#951DA0"/>
<g id="shirt-shadows">
<path id="shirt-shadow-1" opacity="0.1" d="M454.232 531.785C454.232 531.785 524.954 567.877 550.389 563.595L454.232 531.785Z" fill="black"/>
<path id="shirt-shadow-2" opacity="0.1" d="M598.157 517.104C598.157 517.104 667.018 539.126 689.972 542.185C712.925 545.243 598.157 517.104 598.157 517.104Z" fill="black"/>
</g>
</g>
<g id="chair">
<path id="Vector_48" d="M433.934 675.994V674.966L651.832 672.629L784.59 671.406H784.962V671.198L786.203 654.754L786.736 647.414L788.771 619.751L790.372 597.852V597.313C790.446 596.304 790.4 595.29 790.235 594.291C790.242 594.251 790.242 594.21 790.235 594.169C789.894 592.104 789.042 590.154 787.754 588.492C786.388 586.765 784.598 585.409 782.553 584.553C780.508 583.697 778.275 583.368 776.066 583.599C761.041 585.116 745.867 586.327 730.68 587.269C728.608 587.416 726.536 587.538 724.476 587.648C626.533 593.386 529.47 588.737 476.95 585.201L473.228 584.932C464.133 584.296 456.528 583.709 450.671 583.207C447.45 582.939 444.242 583.857 441.666 585.784C439.091 587.712 437.331 590.511 436.726 593.643C436.6 594.305 436.526 594.976 436.502 595.65L435.659 622.761L434.505 657.103L433.959 674.672V675.015V676.042L433.934 675.994Z" fill="#3F3D56"/>
<path id="Vector_49" opacity="0.1" d="M790.756 601.045L789.23 619.8L786.96 647.756L786.389 654.754L785.148 670.427L785.074 671.21V671.418L784.888 673.229L785.024 671.418H784.664L651.906 672.641L433.971 674.966V674.623L434.579 657.055L435.82 622.724L436.614 599.907C436.653 598.609 437.021 597.341 437.684 596.219C438.347 595.098 439.284 594.157 440.411 593.484C441.816 592.635 443.458 592.249 445.101 592.383C447.706 592.591 450.907 592.835 454.642 593.105C460.709 593.545 468.191 594.059 476.901 594.597C493.03 595.6 513.266 596.677 536.456 597.558C600.974 600.005 688.073 600.825 770.805 593.68C774.528 593.362 778.374 593.007 782.133 592.652C783.621 592.506 785.121 592.786 786.451 593.459C786.828 593.645 787.185 593.866 787.518 594.12C788.598 594.892 789.454 595.93 789.999 597.13C790.126 597.369 790.23 597.618 790.31 597.876C790.682 598.89 790.835 599.969 790.756 601.045Z" fill="black"/>
<path id="Vector_50" opacity="0.1" d="M790.384 592.469L790.26 594.218V594.34L790.049 597.154L788.399 619.8L786.401 647.083L785.831 654.767L784.59 671.21V671.418L651.832 672.641L433.971 674.966V675.994H433.797V674.966V674.623L434.356 657.055L435.423 622.725L436.341 593.619L436.428 590.719C436.482 588.969 436.898 587.248 437.649 585.662C438.4 584.075 439.472 582.656 440.798 581.492C442.124 580.327 443.677 579.442 445.362 578.889C447.046 578.336 448.828 578.128 450.597 578.277C456.453 578.766 464.059 579.365 473.154 580.002L476.876 580.271C529.396 583.868 626.459 588.517 724.402 582.718C726.462 582.608 728.534 582.485 730.606 582.338C745.792 581.396 760.966 580.185 775.992 578.668C777.891 578.472 779.811 578.689 781.616 579.303C783.422 579.918 785.068 580.915 786.44 582.225C787.813 583.535 788.877 585.125 789.558 586.885C790.24 588.644 790.522 590.529 790.384 592.407V592.469Z" fill="black"/>
</g>
<g id="stars">
<path id="Star-2" d="M724.5 85L725.959 91.2188H730.682L726.861 95.0623L728.321 101.281L724.5 97.4377L720.679 101.281L722.139 95.0623L718.318 91.2188H723.041L724.5 85Z" fill="url(#paint1_radial)"/>
<path id="Star-3" d="M123 298L125.694 305.601H134.413L127.359 310.298L130.053 317.899L123 313.202L115.947 317.899L118.641 310.298L111.587 305.601H120.306L123 298Z" fill="url(#paint2_radial)"/>
<path id="Star-4" d="M41 361L42.7961 366.528H48.6085L43.9062 369.944L45.7023 375.472L41 372.056L36.2977 375.472L38.0938 369.944L33.3915 366.528H39.2039L41 361Z" fill="url(#paint3_radial)"/>
<path id="Star-15" d="M68.6417 548.449L68.5117 554.26L73.998 556.179L68.4313 557.851L68.3013 563.662L64.991 558.884L59.4243 560.556L62.945 555.932L59.6346 551.154L65.121 553.073L68.6417 548.449Z" fill="url(#paint4_radial)"/>
<path id="Star-5" d="M919.151 45.4608L919.555 53.5149L927.908 56.012L919.805 58.4925L920.209 66.5466L914.797 60.0256L906.693 62.5062L911.452 55.9954L906.039 49.4745L914.392 51.9716L919.151 45.4608Z" fill="url(#paint5_radial)"/>
<path id="Star-6" d="M1161.34 333.74L1169.3 335.008L1173.47 327.351L1174.22 335.792L1182.19 337.061L1174.69 341.009L1175.44 349.45L1170.06 343.449L1162.56 347.398L1166.73 339.741L1161.34 333.74Z" fill="url(#paint6_radial)"/>
<path id="Star-1" d="M1076.29 210.353L1075 218.313L1082.64 222.502L1074.2 223.233L1072.91 231.194L1068.98 223.685L1060.54 224.416L1066.55 219.044L1062.62 211.535L1070.27 215.724L1076.29 210.353Z" fill="url(#paint7_radial)"/>
<path id="Star-16" d="M1061 530L1063.25 536.219H1070.51L1064.63 540.062L1066.88 546.281L1061 542.438L1055.12 546.281L1057.37 540.062L1051.49 536.219H1058.75L1061 530Z" fill="url(#paint8_radial)"/>
<path id="Star-14" d="M826.747 340.223L829.806 344.428L835.785 342.881L831.696 347.027L834.755 351.232L829.17 349.589L825.081 353.734L825.718 348.573L820.132 346.93L826.111 345.384L826.747 340.223Z" fill="url(#paint9_radial)"/>
<path id="Star-13" d="M439.418 323.187L446.125 327.664L453.11 322.447L450.27 330.432L456.976 334.909L448.514 335.366L445.674 343.351L443.284 335.649L434.822 336.106L441.807 330.889L439.418 323.187Z" fill="url(#paint10_radial)"/>
<path id="Star-7" d="M117.829 160.216L121.97 167.136L130.517 165.415L124.53 171.412L128.671 178.332L120.829 175.119L114.842 181.116L115.983 173.133L108.141 169.92L116.688 168.199L117.829 160.216Z" fill="url(#paint11_radial)"/>
<path id="Star-12" d="M1069.58 56.0926L1073.23 63.2806L1081.88 62.1518L1075.49 67.723L1079.15 74.911L1071.54 71.1663L1065.16 76.7375L1066.85 68.8519L1059.24 65.1071L1067.89 63.9783L1069.58 56.0926Z" fill="url(#paint12_radial)"/>
<path id="Star-8" d="M144.631 439.258L148.899 446.1L157.413 444.223L151.537 450.329L155.804 457.171L147.905 454.103L142.029 460.209L143.023 452.207L135.123 449.139L143.637 447.261L144.631 439.258Z" fill="url(#paint13_radial)"/>
<path id="Star-9" d="M1145.87 149.058L1149.33 156.343L1158 155.449L1151.47 160.845L1154.93 168.129L1147.43 164.18L1140.9 169.575L1142.8 161.738L1135.3 157.788L1143.97 156.895L1145.87 149.058Z" fill="url(#paint14_radial)"/>
<path id="Star-10" d="M1035.9 390.446L1040.63 396.98L1048.99 394.523L1043.55 401.018L1048.27 407.552L1040.18 405.031L1034.74 411.526L1035.18 403.474L1027.09 400.954L1035.46 398.498L1035.9 390.446Z" fill="url(#paint15_radial)"/>
<path id="Star-11" d="M307.984 56.4216L312.659 62.9924L321.043 60.6019L315.548 67.0534L320.223 73.6242L312.152 71.0406L306.657 77.4921L307.164 69.4439L299.093 66.8603L307.477 64.4698L307.984 56.4216Z" fill="url(#paint16_radial)"/>
</g>
</g>
</g>
<defs>
<radialGradient id="paint0_radial" cx="0" cy="0" r="1" gradientUnits="userSpaceOnUse" gradientTransform="translate(1038.48 124.054) rotate(152.618) scale(1056.35 2020.29)">
<stop stop-color="#0F0F0F"/>
<stop offset="0.716317" stop-color="#271DA0"/>
<stop offset="1" stop-color="#0F0F0F"/>
<!-- <stop stop-color="#21078A"/>
<stop offset="0.716317" stop-color="#0F0F0F"/>
<stop offset="1" stop-color="#271DA0"/> -->
</radialGradient>
<radialGradient id="paint0_radial_2" cx="0" cy="0" r="1" gradientUnits="userSpaceOnUse" gradientTransform="translate(1038.48 124.054) rotate(152.618) scale(1056.35 2020.29)">
<stop stop-color="lightyellow"/>
<stop offset="0.716317" stop-color="skyblue"/>
<stop offset="1" stop-color="skyblue"/>
</radialGradient>
<radialGradient id="paint1_radial" cx="0" cy="0" r="1" gradientUnits="userSpaceOnUse" gradientTransform="translate(724.71 93.64) rotate(91.2833) scale(9.36235 6.7683)">
<stop stop-color="#EBFF00"/>
<stop offset="1" stop-color="white"/>
</radialGradient>
<radialGradient id="paint2_radial" cx="0" cy="0" r="1" gradientUnits="userSpaceOnUse" gradientTransform="translate(123.387 308.56) rotate(91.938) scale(11.4465 12.4913)">
<stop stop-color="#EBFF00"/>
<stop offset="1" stop-color="white"/>
</radialGradient>
<radialGradient id="paint3_radial" cx="0" cy="0" r="1" gradientUnits="userSpaceOnUse" gradientTransform="translate(41.2581 368.68) rotate(91.7766) scale(8.324 8.3283)">
<stop stop-color="#EBFF00"/>
<stop offset="1" stop-color="white"/>
</radialGradient>
<radialGradient id="paint4_radial" cx="0" cy="0" r="1" gradientUnits="userSpaceOnUse" gradientTransform="translate(66.3492 555.783) rotate(111.058) scale(8.324 8.3283)">
<stop stop-color="#EBFF00"/>
<stop offset="1" stop-color="white"/>
</radialGradient>
<radialGradient id="paint5_radial" cx="0" cy="0" r="1" gradientUnits="userSpaceOnUse" gradientTransform="translate(916.497 55.6893) rotate(108.581) scale(11.4465 12.4913)">
<stop stop-color="#EBFF00"/>
<stop offset="1" stop-color="white"/>
</radialGradient>
<radialGradient id="paint6_radial" cx="0" cy="0" r="1" gradientUnits="userSpaceOnUse" gradientTransform="translate(1170.8 338.45) rotate(30.5051) scale(11.4465 12.4913)">
<stop stop-color="#EBFF00"/>
<stop offset="1" stop-color="white"/>
</radialGradient>
<radialGradient id="paint7_radial" cx="0" cy="0" r="1" gradientUnits="userSpaceOnUse" gradientTransform="translate(1071.55 219.8) rotate(120.655) scale(11.4465 12.4913)">
<stop stop-color="#EBFF00"/>
<stop offset="1" stop-color="white"/>
</radialGradient>
<radialGradient id="paint8_radial" cx="0" cy="0" r="1" gradientUnits="userSpaceOnUse" gradientTransform="translate(1061.32 538.64) rotate(91.9738) scale(9.36556 10.4092)">
<stop stop-color="#EBFF00"/>
<stop offset="1" stop-color="white"/>
</radialGradient>
<radialGradient id="paint9_radial" cx="0" cy="0" r="1" gradientUnits="userSpaceOnUse" gradientTransform="translate(828.695 346.66) rotate(77.6541) scale(7.28516 8.8468)">
<stop stop-color="#EBFF00"/>
<stop offset="1" stop-color="white"/>
</radialGradient>
<radialGradient id="paint10_radial" cx="0" cy="0" r="1" gradientUnits="userSpaceOnUse" gradientTransform="translate(446.047 331.416) rotate(55.1829) scale(11.4465 12.4913)">
<stop stop-color="#EBFF00"/>
<stop offset="1" stop-color="white"/>
</radialGradient>
<radialGradient id="paint11_radial" cx="0" cy="0" r="1" gradientUnits="userSpaceOnUse" gradientTransform="translate(120.293 170.492) rotate(80.554) scale(11.4465 12.4913)">
<stop stop-color="#EBFF00"/>
<stop offset="1" stop-color="white"/>
</radialGradient>
<radialGradient id="paint12_radial" cx="0" cy="0" r="1" gradientUnits="userSpaceOnUse" gradientTransform="translate(1071.33 66.5136) rotate(84.4986) scale(11.4465 12.4913)">
<stop stop-color="#EBFF00"/>
<stop offset="1" stop-color="white"/>
</radialGradient>
<radialGradient id="paint13_radial" cx="0" cy="0" r="1" gradientUnits="userSpaceOnUse" gradientTransform="translate(147.283 449.487) rotate(79.501) scale(11.4465 12.4913)">
<stop stop-color="#EBFF00"/>
<stop offset="1" stop-color="white"/>
</radialGradient>
<radialGradient id="paint14_radial" cx="0" cy="0" r="1" gradientUnits="userSpaceOnUse" gradientTransform="translate(1147.34 159.523) rotate(86.0552) scale(11.4465 12.4913)">
<stop stop-color="#EBFF00"/>
<stop offset="1" stop-color="white"/>
</radialGradient>
<radialGradient id="paint15_radial" cx="0" cy="0" r="1" gradientUnits="userSpaceOnUse" gradientTransform="translate(1039.25 400.469) rotate(75.5755) scale(11.4465 12.4913)">
<stop stop-color="#EBFF00"/>
<stop offset="1" stop-color="white"/>
</radialGradient>
<radialGradient id="paint16_radial" cx="0" cy="0" r="1" gradientUnits="userSpaceOnUse" gradientTransform="translate(311.252 66.4707) rotate(76.0245) scale(11.4465 12.4913)">
<stop stop-color="#EBFF00"/>
<stop offset="1" stop-color="white"/>
</radialGradient>
<clipPath id="clip0">
<rect width="1292" height="678" fill="white"/>
</clipPath>
</defs>
</svg>
